<svg xmlns="http://www.w3.org/2000/svg" version="1.1" xmlns:xlink="http://www.w3.org/1999/xlink" width="64" height="64"><svg xmlns="http://www.w3.org/2000/svg" version="1.1" xmlns:xlink="http://www.w3.org/1999/xlink" width="64" height="64"><svg width="64" height="64" viewBox="0 0 64 64" version="1.1" id="svg25923" inkscape:version="1.4.3 (0d15f75042, 2025-12-25)" sodipodi:docname="accglobe.svg" xmlns:inkscape="http://www.inkscape.org/namespaces/inkscape" xmlns:sodipodi="http://sodipodi.sourceforge.net/DTD/sodipodi-0.dtd" xmlns="http://www.w3.org/2000/svg" xmlns:svg="http://www.w3.org/2000/svg">
  <sodipodi:namedview id="namedview25925" pagecolor="#505050" bordercolor="#eeeeee" borderopacity="1" inkscape:showpageshadow="0" inkscape:pageopacity="0" inkscape:pagecheckerboard="0" inkscape:deskcolor="#505050" inkscape:document-units="mm" showgrid="false" inkscape:zoom="6.2502245" inkscape:cx="-43.43844" inkscape:cy="33.038813" inkscape:window-width="2560" inkscape:window-height="1380" inkscape:window-x="0" inkscape:window-y="0" inkscape:window-maximized="1" inkscape:current-layer="layer1"></sodipodi:namedview>
  <defs id="defs25920"></defs>
  <g inkscape:label="Layer 1" inkscape:groupmode="layer" id="layer1" transform="translate(-15.812502,-59.313503)">
    <path id="path1172-8" style="fill:#3f7f40;fill-opacity:1;stroke:none;stroke-width:1.06118;stroke-opacity:1" d="m 49.130532,61.077285 c -15.970616,6.8e-5 -31.554159,15.583787 -31.554251,31.554603 9.1e-5,15.970832 12.946876,28.917762 28.917512,28.917832 15.970929,3e-4 31.554861,-15.58351 31.554929,-31.554599 C 78.048654,74.024011 65.10146,61.07699 49.130532,61.077285 Z m -2.636739,4.856786 C 59.382891,65.933912 70.138784,75.06786 72.641728,87.216029 61.432455,86.472916 50.649951,83.36843 42.376379,80.280167 37.790549,78.568426 33.975545,76.862401 31.281168,75.575163 29.933966,74.931522 28.867036,74.394048 28.122614,74.009765 27.942724,73.916983 27.843365,73.8639 27.701109,73.789494 31.878184,68.771145 38.359324,65.934162 46.493793,65.934048 Z M 24.650309,78.722888 c 0.75041,0.385689 1.75514,0.89211 3.032516,1.502381 2.74222,1.310125 6.614276,3.039922 11.274808,4.779544 9.214174,3.439383 21.502625,6.918532 34.228254,7.221174 0.0024,0.135202 0.0045,0.270201 0.0045,0.405901 2.3e-5,2.232226 -0.215277,4.339138 -0.628843,6.309034 C 60.129268,98.683967 47.705183,95.229929 38.461338,91.777369 33.81494,90.041968 29.949553,88.315276 27.236007,87.020851 25.879211,86.373647 24.809218,85.835808 24.075413,85.45613 23.70851,85.266257 23.425063,85.116762 23.230384,85.012957 23.0666,84.922677 22.958711,84.867547 22.84819,84.81174 c 0.366881,-2.195339 0.973698,-4.230111 1.801191,-6.088784 z M 22.458103,91.09632 c 0.380536,0.186697 0.739839,0.364819 1.181148,0.575315 2.761775,1.317427 6.687547,3.067437 11.407648,4.830377 9.396376,3.509528 23.039174,7.259368 35.873602,7.522048 -0.8877,1.96311 -2.023386,3.72659 -3.388282,5.27017 -11.973906,-0.46262 -23.678951,-3.78129 -32.51177,-7.07479 -4.603592,-1.71657 -8.42826,-3.424657 -11.108097,-4.707717 -0.166279,-0.07963 -0.314319,-0.152218 -0.471638,-0.228369 -0.560154,-1.978403 -0.89591,-4.050542 -0.982611,-6.187034 z m 4.737478,14.1177 c 1.373719,0.56563 2.840672,1.14636 4.406099,1.73007 8.441236,3.14749 18.799673,6.12549 30.206411,6.84778 -3.542513,1.8873 -7.814544,2.90113 -12.677559,2.90107 -9.08773,-1.4e-4 -17.113382,-4.54233 -21.934951,-11.47892 z"></path>
  </g>
</svg></svg><style>@media (prefers-color-scheme: light) { :root { filter: none; } }
@media (prefers-color-scheme: dark) { :root { filter: contrast(0.9090909090909091) brightness(1.5); } }
</style></svg>