<?xml version="1.0" encoding="UTF-8" standalone="no"?>
<!-- Created with Inkscape (http://www.inkscape.org/) -->

<svg
   width="210mm"
   height="297mm"
   viewBox="0 0 210 297"
   version="1.1"
   id="svg5"
   inkscape:version="1.2.2 (732a01da63, 2022-12-09)"
   sodipodi:docname="accglobes.svg"
   xmlns:inkscape="http://www.inkscape.org/namespaces/inkscape"
   xmlns:sodipodi="http://sodipodi.sourceforge.net/DTD/sodipodi-0.dtd"
   xmlns="http://www.w3.org/2000/svg"
   xmlns:svg="http://www.w3.org/2000/svg">
  <sodipodi:namedview
     id="namedview7"
     pagecolor="#505050"
     bordercolor="#eeeeee"
     borderopacity="1"
     inkscape:showpageshadow="0"
     inkscape:pageopacity="0"
     inkscape:pagecheckerboard="0"
     inkscape:deskcolor="#505050"
     inkscape:document-units="mm"
     showgrid="false"
     inkscape:zoom="0.50000001"
     inkscape:cx="225.99999"
     inkscape:cy="669.99998"
     inkscape:window-width="1920"
     inkscape:window-height="1057"
     inkscape:window-x="-8"
     inkscape:window-y="-8"
     inkscape:window-maximized="1"
     inkscape:current-layer="layer1" />
  <defs
     id="defs2" />
  <g
     inkscape:label="Layer 1"
     inkscape:groupmode="layer"
     id="layer1">
    <path
       id="path1172"
       style="fill:#3f7f40;fill-opacity:0.399093;stroke:none;stroke-width:0.467792;stroke-opacity:1"
       d="M 21.542135,7.2369586 C 14.50188,7.2369936 7.6322662,14.106608 7.6322262,21.146874 c 4e-5,7.040267 5.7073078,12.747534 12.7475678,12.747569 C 27.420177,33.89457 34.28997,27.02491 34.290004,19.984528 34.28997,12.944146 28.582523,7.2368316 21.542135,7.2369586 Z M 20.379794,9.377934 c 5.681839,-6.9e-5 10.423311,4.026357 11.52667,9.381515 -4.941328,-0.327581 -9.694529,-1.696097 -13.341728,-3.057467 -2.021552,-0.754575 -3.703307,-1.506617 -4.891059,-2.074064 -0.593877,-0.283729 -1.064207,-0.520652 -1.392361,-0.690056 -0.07927,-0.04092 -0.123101,-0.06431 -0.18581,-0.09709 1.841355,-2.212188 4.698405,-3.462794 8.284288,-3.462841 z m -9.62916,5.63757 c 0.330795,0.170022 0.773708,0.393256 1.336808,0.662279 1.20884,0.577529 2.915736,1.340058 4.970215,2.106922 4.061844,1.516143 9.478902,3.049825 15.088684,3.183233 0.0012,0.0596 0.0023,0.119117 0.0023,0.178936 1.2e-5,0.984005 -0.09492,1.912776 -0.277214,2.78115 -5.480456,-0.113268 -10.957304,-1.63588 -15.03223,-3.157845 -2.048241,-0.765002 -3.752206,-1.526161 -4.94841,-2.096764 -0.598102,-0.285302 -1.069785,-0.522392 -1.393263,-0.689761 -0.161738,-0.08368 -0.286694,-0.149605 -0.372509,-0.195365 -0.07225,-0.03982 -0.119759,-0.0641 -0.1684853,-0.08872 0.1617273,-0.96775 0.4292363,-1.864715 0.7940163,-2.684062 z m -0.9663803,5.454454 c 0.16775,0.08228 0.3261363,0.160819 0.5206813,0.253617 1.217459,0.580743 2.948038,1.352191 5.028773,2.129328 4.142161,1.54707 10.156252,3.200078 15.813991,3.315865 -0.39132,0.86538 -0.891959,1.642759 -1.493633,2.323201 -5.278408,-0.203932 -10.438288,-1.666864 -14.332012,-3.118708 -2.029385,-0.756696 -3.715394,-1.509658 -4.89673,-2.075255 -0.07326,-0.03508 -0.138558,-0.06707 -0.207915,-0.100671 -0.2469293,-0.872119 -0.3949333,-1.78556 -0.4331553,-2.727377 z m 2.0884003,6.223376 c 0.60557,0.249334 1.252236,0.505339 1.942321,0.76265 3.721105,1.387482 8.287369,2.700242 13.315744,3.018639 -1.561632,0.831955 -3.444851,1.278874 -5.588584,1.278845 -4.006107,-5.2e-5 -7.54401,-2.002348 -9.669481,-5.060134 z" />
    <path
       id="path1172-1"
       style="fill:#3f7f40;fill-opacity:0.399093;stroke:none;stroke-width:0.467792;stroke-opacity:1"
       d="m 56.454601,28.618062 c -7.04025,3.5e-5 -13.90986,6.869648 -13.9099,13.909914 4e-5,7.040267 5.7073,12.747534 12.74756,12.747569 7.04038,1.27e-4 13.91018,-6.869533 13.91021,-13.909915 -3e-5,-7.040382 -5.70748,-12.747695 -12.74787,-12.747568 z m -1.16234,2.140975 c 5.68184,-6.9e-5 10.42331,4.026356 11.52667,9.381514 -4.94133,-0.327581 -9.69453,-1.696097 -13.34173,-3.057467 -2.02155,-0.754575 -3.7033,-1.506617 -4.89106,-2.074064 -0.59387,-0.283729 -1.0642,-0.520652 -1.39236,-0.690056 -0.0793,-0.04092 -0.1231,-0.06431 -0.18581,-0.09709 1.84136,-2.212187 4.69841,-3.462793 8.28429,-3.46284 z m -9.62916,5.637569 c 0.3308,0.170022 0.77371,0.393256 1.33681,0.662279 1.20884,0.577529 2.91574,1.340058 4.97021,2.106922 4.06185,1.516143 9.47891,3.049825 15.08869,3.183233 10e-4,0.0596 0.002,0.119117 0.002,0.178936 1e-5,0.984005 -0.0949,1.912776 -0.27722,2.78115 -5.48045,-0.113268 -10.9573,-1.63588 -15.03223,-3.157845 -2.04824,-0.765002 -3.7522,-1.526161 -4.94841,-2.096764 -0.5981,-0.285302 -1.06978,-0.522392 -1.39326,-0.689761 -0.16174,-0.08368 -0.28669,-0.149605 -0.37251,-0.195365 -0.0722,-0.03982 -0.11976,-0.0641 -0.16848,-0.08872 0.16172,-0.96775 0.42923,-1.864715 0.79401,-2.684062 z m -0.96637,5.454454 c 0.16774,0.08228 0.32613,0.160819 0.52067,0.253617 1.21746,0.580743 2.94804,1.352191 5.02877,2.129328 4.14217,1.54707 10.15626,3.200078 15.814,3.315865 -0.39132,0.86538 -0.89196,1.642759 -1.49364,2.323201 -5.27841,-0.203932 -10.43829,-1.666864 -14.33201,-3.118708 -2.02938,-0.756696 -3.71539,-1.509658 -4.89673,-2.075255 -0.0733,-0.03508 -0.13856,-0.06707 -0.20791,-0.100671 -0.24693,-0.872119 -0.39493,-1.78556 -0.43315,-2.727377 z m 2.08839,6.223376 c 0.60557,0.249334 1.25224,0.505339 1.94232,0.76265 3.72111,1.387482 8.28737,2.700242 13.31575,3.018639 -1.56164,0.831955 -3.44485,1.278874 -5.58859,1.278845 -4.00611,-5.2e-5 -7.54401,-2.002348 -9.66948,-5.060134 z" />
    <path
       id="path1172-1-7"
       style="fill:#3f7f40;fill-opacity:0.399093;stroke:none;stroke-width:0.467792;stroke-opacity:1"
       d="m 162.50601,37.735841 c -7.04025,3.5e-5 -13.90986,6.869648 -13.9099,13.909914 4e-5,7.040267 5.7073,12.747534 12.74756,12.747569 7.04038,1.27e-4 13.91018,-6.869533 13.91021,-13.909915 -3e-5,-7.040382 -5.70748,-12.747695 -12.74787,-12.747568 z m -1.16234,2.140975 c 5.68184,-6.9e-5 10.42331,4.026356 11.52667,9.381514 -4.94133,-0.327581 -9.69453,-1.696097 -13.34173,-3.057467 -2.02155,-0.754575 -3.7033,-1.506617 -4.89106,-2.074064 -0.59387,-0.283729 -1.0642,-0.520652 -1.39236,-0.690056 -0.0793,-0.04092 -0.1231,-0.06431 -0.18581,-0.09709 1.84136,-2.212187 4.69841,-3.462793 8.28429,-3.46284 z m -9.62916,5.637569 c 0.3308,0.170022 0.77371,0.393256 1.33681,0.662279 1.20884,0.577529 2.91574,1.340058 4.97021,2.106922 4.06185,1.516143 9.47891,3.049825 15.08869,3.183233 0.001,0.0596 0.002,0.119117 0.002,0.178936 1e-5,0.984005 -0.0949,1.912776 -0.27722,2.78115 -5.48045,-0.113268 -10.9573,-1.63588 -15.03223,-3.157845 -2.04824,-0.765002 -3.7522,-1.526161 -4.94841,-2.096764 -0.5981,-0.285302 -1.06978,-0.522392 -1.39326,-0.689761 -0.16174,-0.08368 -0.28669,-0.149605 -0.37251,-0.195365 -0.0722,-0.03982 -0.11976,-0.0641 -0.16848,-0.08872 0.16172,-0.96775 0.42923,-1.864715 0.79401,-2.684062 z m -0.96637,5.454454 c 0.16774,0.08228 0.32613,0.160819 0.52067,0.253617 1.21746,0.580743 2.94804,1.352191 5.02877,2.129328 4.14217,1.54707 10.15626,3.200078 15.814,3.315865 -0.39132,0.86538 -0.89196,1.642759 -1.49364,2.323201 -5.27841,-0.203932 -10.43829,-1.666864 -14.33201,-3.118708 -2.02938,-0.756696 -3.71539,-1.509658 -4.89673,-2.075255 -0.0733,-0.03508 -0.13856,-0.06707 -0.20791,-0.100671 -0.24693,-0.872119 -0.39493,-1.78556 -0.43315,-2.727377 z m 2.08839,6.223376 c 0.60557,0.249334 1.25224,0.505339 1.94232,0.76265 3.72111,1.387482 8.28737,2.700242 13.31575,3.018639 -1.56164,0.831955 -3.44485,1.278874 -5.58859,1.278845 -4.00611,-5.2e-5 -7.54401,-2.002348 -9.66948,-5.060134 z" />
    <path
       id="path1172-6"
       style="fill:#3f7f40;fill-opacity:0.399093;stroke:none;stroke-width:0.467792;stroke-opacity:1"
       d="m 188.02528,139.87524 c -7.04025,3e-5 -13.90986,6.86964 -13.9099,13.90991 4e-5,7.04026 5.7073,12.74753 12.74756,12.74757 7.04039,1.2e-4 13.91018,-6.86954 13.91021,-13.90992 -3e-5,-7.04038 -5.70748,-12.74769 -12.74787,-12.74756 z m -1.16234,2.14097 c 5.68184,-7e-5 10.42331,4.02636 11.52667,9.38152 -4.94133,-0.32759 -9.69453,-1.6961 -13.34173,-3.05747 -2.02155,-0.75458 -3.7033,-1.50662 -4.89105,-2.07407 -0.59388,-0.28372 -1.06421,-0.52065 -1.39236,-0.69005 -0.0793,-0.0409 -0.12311,-0.0643 -0.18581,-0.0971 1.84135,-2.21219 4.6984,-3.4628 8.28428,-3.46284 z m -9.62916,5.63757 c 0.3308,0.17002 0.77371,0.39326 1.33681,0.66228 1.20884,0.57753 2.91574,1.34006 4.97022,2.10692 4.06184,1.51614 9.4789,3.04982 15.08868,3.18323 0.001,0.0596 0.002,0.11912 0.002,0.17894 10e-6,0.984 -0.0949,1.91277 -0.27721,2.78115 -5.48046,-0.11327 -10.95731,-1.63588 -15.03223,-3.15785 -2.04824,-0.765 -3.75221,-1.52616 -4.94841,-2.09676 -0.59811,-0.2853 -1.06979,-0.52239 -1.39327,-0.68976 -0.16173,-0.0837 -0.28669,-0.1496 -0.37251,-0.19536 -0.0722,-0.0398 -0.11975,-0.0641 -0.16848,-0.0887 0.16173,-0.96775 0.42924,-1.86472 0.79402,-2.68407 z m -0.96638,5.45445 c 0.16775,0.0823 0.32614,0.16082 0.52068,0.25362 1.21746,0.58074 2.94804,1.35219 5.02878,2.12933 4.14216,1.54707 10.15625,3.20007 15.81399,3.31586 -0.39132,0.86538 -0.89196,1.64276 -1.49364,2.3232 -5.2784,-0.20393 -10.43828,-1.66686 -14.33201,-3.11871 -2.02938,-0.75669 -3.71539,-1.50965 -4.89673,-2.07525 -0.0733,-0.0351 -0.13855,-0.0671 -0.20791,-0.10067 -0.24693,-0.87212 -0.39494,-1.78556 -0.43316,-2.72738 z m 2.0884,6.22338 c 0.60557,0.24933 1.25224,0.50534 1.94232,0.76265 3.72111,1.38748 8.28737,2.70024 13.31575,3.01864 -1.56163,0.83195 -3.44485,1.27887 -5.58859,1.27884 -4.0061,-5e-5 -7.54401,-2.00235 -9.66948,-5.06013 z" />
    <path
       id="path1172-68"
       style="fill:#3f7f40;fill-opacity:0.399093;stroke:none;stroke-width:0.467792;stroke-opacity:1"
       d="m 21.563993,192.66672 c -7.04026,4e-5 -13.9098698,6.86965 -13.9099098,13.90991 4e-5,7.04027 5.7072998,12.74754 12.7475598,12.74757 7.040386,1.3e-4 13.910176,-6.86953 13.910206,-13.90991 -3e-5,-7.04038 -5.70748,-12.7477 -12.747856,-12.74757 z m -1.16235,2.14098 c 5.681836,-7e-5 10.423316,4.02635 11.526666,9.38151 -4.94132,-0.32758 -9.694516,-1.6961 -13.341716,-3.05747 -2.02156,-0.75457 -3.70331,-1.50661 -4.89106,-2.07406 -0.59388,-0.28373 -1.06421,-0.52065 -1.39236,-0.69006 -0.0793,-0.0409 -0.1231,-0.0643 -0.18581,-0.0971 1.84135,-2.21218 4.6984,-3.46279 8.28428,-3.46284 z m -9.62916,5.63757 c 0.3308,0.17002 0.77371,0.39325 1.33681,0.66227 1.20884,0.57753 2.91574,1.34006 4.97022,2.10693 4.06184,1.51614 9.478896,3.04982 15.088676,3.18323 0.001,0.0596 0.002,0.11911 0.002,0.17893 10e-6,0.98401 -0.0949,1.91278 -0.27721,2.78115 -5.48046,-0.11326 -10.957306,-1.63588 -15.032226,-3.15784 -2.04824,-0.765 -3.75221,-1.52616 -4.94841,-2.09677 -0.5981,-0.2853 -1.06979,-0.52239 -1.39327,-0.68975 -0.16173,-0.0837 -0.28669,-0.14961 -0.3725,-0.19537 -0.0722,-0.0398 -0.11976,-0.0641 -0.1684898,-0.0887 0.1617298,-0.96775 0.4292398,-1.86471 0.7940198,-2.68406 z m -0.9663798,5.45445 c 0.16775,0.0823 0.3261398,0.16082 0.5206898,0.25361 1.21745,0.58075 2.94803,1.3522 5.02877,2.12933 4.14216,1.54707 10.156246,3.20008 15.813986,3.31587 -0.39132,0.86538 -0.89196,1.64276 -1.49363,2.3232 -5.27841,-0.20393 -10.438286,-1.66686 -14.332016,-3.11871 -2.02938,-0.75669 -3.71539,-1.50966 -4.89673,-2.07525 -0.0733,-0.0351 -0.13855,-0.0671 -0.20791,-0.10067 -0.2469298,-0.87212 -0.3949298,-1.78556 -0.4331598,-2.72738 z m 2.0883998,6.22337 c 0.60557,0.24934 1.25224,0.50534 1.94233,0.76265 3.7211,1.38749 8.28736,2.70025 13.315736,3.01864 -1.56163,0.83196 -3.44485,1.27888 -5.588576,1.27885 -4.00611,-5e-5 -7.54401,-2.00235 -9.66949,-5.06014 z" />
    <path
       id="path1172-68-3"
       style="fill:#3f7f40;fill-opacity:0.399093;stroke:none;stroke-width:0.467792;stroke-opacity:1"
       d="m 161.46491,108.07529 c -7.04026,4e-5 -13.90987,6.86965 -13.90991,13.90991 4e-5,7.04027 5.7073,12.74754 12.74756,12.74757 7.04039,1.3e-4 13.91018,-6.86953 13.91021,-13.90991 -3e-5,-7.04038 -5.70748,-12.7477 -12.74786,-12.74757 z m -1.16235,2.14098 c 5.68184,-7e-5 10.42332,4.02635 11.52667,9.38151 -4.94132,-0.32758 -9.69452,-1.6961 -13.34172,-3.05747 -2.02156,-0.75457 -3.70331,-1.50661 -4.89106,-2.07406 -0.59388,-0.28373 -1.06421,-0.52065 -1.39236,-0.69006 -0.0793,-0.0409 -0.1231,-0.0643 -0.18581,-0.0971 1.84135,-2.21218 4.6984,-3.46279 8.28428,-3.46284 z m -9.62916,5.63757 c 0.3308,0.17002 0.77371,0.39325 1.33681,0.66227 1.20884,0.57753 2.91574,1.34006 4.97022,2.10693 4.06184,1.51614 9.4789,3.04982 15.08868,3.18323 0.001,0.0596 0.002,0.11911 0.002,0.17893 1e-5,0.98401 -0.0949,1.91278 -0.27721,2.78115 -5.48046,-0.11326 -10.95731,-1.63588 -15.03223,-3.15784 -2.04824,-0.765 -3.75221,-1.52616 -4.94841,-2.09677 -0.5981,-0.2853 -1.06979,-0.52239 -1.39327,-0.68975 -0.16173,-0.0837 -0.28669,-0.14961 -0.3725,-0.19537 -0.0722,-0.0398 -0.11976,-0.0641 -0.16849,-0.0887 0.16173,-0.96775 0.42924,-1.86471 0.79402,-2.68406 z m -0.96638,5.45445 c 0.16775,0.0823 0.32614,0.16082 0.52069,0.25361 1.21745,0.58075 2.94803,1.3522 5.02877,2.12933 4.14216,1.54707 10.15625,3.20008 15.81399,3.31587 -0.39132,0.86538 -0.89196,1.64276 -1.49363,2.3232 -5.27841,-0.20393 -10.43829,-1.66686 -14.33202,-3.11871 -2.02938,-0.75669 -3.71539,-1.50966 -4.89673,-2.07525 -0.0733,-0.0351 -0.13855,-0.0671 -0.20791,-0.10067 -0.24693,-0.87212 -0.39493,-1.78556 -0.43316,-2.72738 z m 2.0884,6.22337 c 0.60557,0.24934 1.25224,0.50534 1.94233,0.76265 3.7211,1.38749 8.28736,2.70025 13.31574,3.01864 -1.56163,0.83196 -3.44485,1.27888 -5.58858,1.27885 -4.00611,-5e-5 -7.54401,-2.00235 -9.66949,-5.06014 z" />
    <path
       id="path1172-68-6"
       style="fill:#3f7f40;fill-opacity:0.399093;stroke:none;stroke-width:0.467792;stroke-opacity:1"
       d="m 58.226369,89.184279 c -7.04026,4e-5 -13.90987,6.86965 -13.90991,13.909911 4e-5,7.04027 5.7073,12.74754 12.74756,12.74757 7.04039,1.3e-4 13.91018,-6.86953 13.91021,-13.90991 -3e-5,-7.040381 -5.70748,-12.747701 -12.74786,-12.747571 z m -1.16235,2.14098 c 5.68184,-7e-5 10.42332,4.02635 11.52667,9.381511 -4.94132,-0.32758 -9.69452,-1.696101 -13.34172,-3.057471 -2.02156,-0.75457 -3.70331,-1.50661 -4.89106,-2.07406 -0.59388,-0.28373 -1.06421,-0.52065 -1.39236,-0.69006 -0.0793,-0.0409 -0.1231,-0.0643 -0.18581,-0.0971 1.84135,-2.21218 4.6984,-3.46279 8.28428,-3.46284 z m -9.62916,5.63757 c 0.3308,0.17002 0.77371,0.39325 1.33681,0.66227 1.20884,0.57753 2.91574,1.34006 4.97022,2.10693 4.06184,1.516141 9.4789,3.049821 15.08868,3.183231 0.001,0.0596 0.002,0.11911 0.002,0.17893 10e-6,0.98401 -0.0949,1.91278 -0.27721,2.78115 -5.48046,-0.11326 -10.95731,-1.63588 -15.03223,-3.15784 -2.04824,-0.765 -3.75221,-1.52616 -4.94841,-2.09677 -0.5981,-0.2853 -1.06979,-0.52239 -1.39327,-0.689751 -0.16173,-0.0837 -0.28669,-0.14961 -0.3725,-0.19537 -0.0722,-0.0398 -0.11976,-0.0641 -0.16849,-0.0887 0.16173,-0.96775 0.42924,-1.86471 0.79402,-2.68406 z m -0.96638,5.454451 c 0.16775,0.0823 0.32614,0.16082 0.52069,0.25361 1.21745,0.58075 2.94803,1.3522 5.02877,2.12933 4.14216,1.54707 10.15625,3.20008 15.81399,3.31587 -0.39132,0.86538 -0.89196,1.64276 -1.49363,2.3232 -5.27841,-0.20393 -10.43829,-1.66686 -14.33202,-3.11871 -2.02938,-0.75669 -3.71539,-1.50966 -4.89673,-2.07525 -0.0733,-0.0351 -0.13855,-0.0671 -0.20791,-0.10067 -0.24693,-0.87212 -0.39493,-1.78556 -0.43316,-2.72738 z m 2.0884,6.22337 c 0.60557,0.24934 1.25224,0.50534 1.94233,0.76265 3.7211,1.38749 8.28736,2.70025 13.31574,3.01864 -1.56163,0.83196 -3.44485,1.27888 -5.58858,1.27885 -4.00611,-5e-5 -7.54401,-2.00235 -9.66949,-5.06014 z" />
    <path
       id="path1172-68-6-4"
       style="fill:#3f7f40;fill-opacity:0.399093;stroke:none;stroke-width:0.467792;stroke-opacity:1"
       d="m 27.303941,58.108757 c -7.04026,4e-5 -13.90987,6.86965 -13.90991,13.90991 4e-5,7.04027 5.7073,12.74754 12.74756,12.74757 7.04039,1.3e-4 13.910187,-6.86953 13.910217,-13.90991 -3e-5,-7.04038 -5.70749,-12.7477 -12.747867,-12.74757 z m -1.16235,2.14098 c 5.68184,-7e-5 10.423317,4.02635 11.526677,9.38151 -4.941327,-0.32758 -9.694527,-1.6961 -13.341727,-3.05747 -2.02156,-0.75457 -3.70331,-1.50661 -4.89106,-2.07406 -0.59388,-0.28373 -1.06421,-0.52065 -1.39236,-0.69006 -0.0793,-0.0409 -0.1231,-0.0643 -0.18581,-0.0971 1.84135,-2.21218 4.6984,-3.46279 8.28428,-3.46284 z m -9.62916,5.63757 c 0.3308,0.17002 0.77371,0.39325 1.33681,0.66227 1.20884,0.57753 2.91574,1.34006 4.97022,2.10693 4.06184,1.51614 9.4789,3.04982 15.088687,3.18323 0.001,0.0596 0.002,0.11911 0.002,0.17893 1e-5,0.98401 -0.0949,1.91278 -0.27721,2.78115 -5.480467,-0.11326 -10.957317,-1.63588 -15.032237,-3.15784 -2.04824,-0.765 -3.75221,-1.52616 -4.94841,-2.09677 -0.5981,-0.2853 -1.06979,-0.52239 -1.39327,-0.68975 -0.16173,-0.0837 -0.28669,-0.14961 -0.3725,-0.19537 -0.0722,-0.0398 -0.11976,-0.0641 -0.16849,-0.0887 0.16173,-0.96775 0.42924,-1.86471 0.79402,-2.68406 z m -0.96638,5.45445 c 0.16775,0.0823 0.32614,0.16082 0.52069,0.25361 1.21745,0.58075 2.94803,1.3522 5.02877,2.12933 4.14216,1.54707 10.15625,3.20008 15.813987,3.31587 -0.39132,0.86538 -0.89196,1.64276 -1.49363,2.3232 -5.278407,-0.20393 -10.438287,-1.66686 -14.332017,-3.11871 -2.02938,-0.75669 -3.71539,-1.50966 -4.89673,-2.07525 -0.0733,-0.0351 -0.13855,-0.0671 -0.20791,-0.10067 -0.24693,-0.87212 -0.39493,-1.78556 -0.43316,-2.72738 z m 2.0884,6.22337 c 0.60557,0.24934 1.25224,0.50534 1.94233,0.76265 3.7211,1.38749 8.28736,2.70025 13.31574,3.01864 -1.56163,0.83196 -3.44485,1.27888 -5.58858,1.27885 -4.00611,-5e-5 -7.54401,-2.00235 -9.66949,-5.06014 z" />
    <path
       id="path1172-68-30"
       style="fill:#3f7f40;fill-opacity:0.399093;stroke:none;stroke-width:0.467792;stroke-opacity:1"
       d="m 41.951937,229.54994 c -7.04026,4e-5 -13.90987,6.86965 -13.90991,13.90991 4e-5,7.04027 5.7073,12.74754 12.74756,12.74757 7.04039,1.3e-4 13.91018,-6.86953 13.91021,-13.90991 -3e-5,-7.04038 -5.70748,-12.7477 -12.74786,-12.74757 z m -1.16235,2.14098 c 5.68184,-7e-5 10.42332,4.02635 11.52667,9.38151 -4.94132,-0.32758 -9.69452,-1.6961 -13.34172,-3.05747 -2.02156,-0.75457 -3.70331,-1.50661 -4.89106,-2.07406 -0.59388,-0.28373 -1.06421,-0.52065 -1.39236,-0.69006 -0.0793,-0.0409 -0.1231,-0.0643 -0.18581,-0.0971 1.84135,-2.21218 4.6984,-3.46279 8.28428,-3.46284 z m -9.62916,5.63757 c 0.3308,0.17002 0.77371,0.39325 1.33681,0.66227 1.20884,0.57753 2.91574,1.34006 4.97022,2.10693 4.06184,1.51614 9.4789,3.04982 15.08868,3.18323 10e-4,0.0596 0.002,0.11911 0.002,0.17893 10e-6,0.98401 -0.0949,1.91278 -0.27721,2.78115 -5.48046,-0.11326 -10.95731,-1.63588 -15.03223,-3.15784 -2.04824,-0.765 -3.75221,-1.52616 -4.94841,-2.09677 -0.5981,-0.2853 -1.06979,-0.52239 -1.39327,-0.68975 -0.16173,-0.0837 -0.28669,-0.14961 -0.3725,-0.19537 -0.0722,-0.0398 -0.11976,-0.0641 -0.16849,-0.0887 0.16173,-0.96775 0.42924,-1.86471 0.79402,-2.68406 z m -0.96638,5.45445 c 0.16775,0.0823 0.32614,0.16082 0.52069,0.25361 1.21745,0.58075 2.94803,1.3522 5.02877,2.12933 4.14216,1.54707 10.15625,3.20008 15.81399,3.31587 -0.39132,0.86538 -0.89196,1.64276 -1.49363,2.3232 -5.27841,-0.20393 -10.43829,-1.66686 -14.33202,-3.11871 -2.02938,-0.75669 -3.71539,-1.50966 -4.89673,-2.07525 -0.0733,-0.0351 -0.13855,-0.0671 -0.20791,-0.10067 -0.24693,-0.87212 -0.39493,-1.78556 -0.43316,-2.72738 z m 2.0884,6.22337 c 0.60557,0.24934 1.25224,0.50534 1.94233,0.76265 3.7211,1.38749 8.28736,2.70025 13.31574,3.01864 -1.56163,0.83196 -3.44485,1.27888 -5.58858,1.27885 -4.00611,-5e-5 -7.54401,-2.00235 -9.66949,-5.06014 z" />
    <path
       id="path1172-64"
       style="fill:#3f7f40;fill-opacity:0.399093;stroke:none;stroke-width:0.467792;stroke-opacity:1"
       d="m 189.6743,212.12663 c -7.04025,3e-5 -13.90987,6.86964 -13.90991,13.90991 4e-5,7.04027 5.70731,12.74753 12.74757,12.74757 7.04039,1.3e-4 13.91018,-6.86953 13.91021,-13.90992 -3e-5,-7.04038 -5.70748,-12.74769 -12.74787,-12.74756 z m -1.16234,2.14097 c 5.68184,-7e-5 10.42331,4.02636 11.52667,9.38151 -4.94133,-0.32758 -9.69453,-1.69609 -13.34173,-3.05746 -2.02155,-0.75458 -3.7033,-1.50662 -4.89105,-2.07407 -0.59388,-0.28372 -1.06421,-0.52065 -1.39237,-0.69005 -0.0793,-0.0409 -0.1231,-0.0643 -0.18581,-0.0971 1.84136,-2.21219 4.69841,-3.4628 8.28429,-3.46284 z m -9.62916,5.63757 c 0.3308,0.17002 0.77371,0.39326 1.33681,0.66228 1.20884,0.57753 2.91574,1.34006 4.97022,2.10692 4.06184,1.51614 9.4789,3.04983 15.08868,3.18323 10e-4,0.0596 0.002,0.11912 0.002,0.17894 1e-5,0.984 -0.0949,1.91278 -0.27721,2.78115 -5.48046,-0.11327 -10.95731,-1.63588 -15.03223,-3.15785 -2.04825,-0.765 -3.75221,-1.52616 -4.94841,-2.09676 -0.59811,-0.2853 -1.06979,-0.52239 -1.39327,-0.68976 -0.16174,-0.0837 -0.28669,-0.1496 -0.37251,-0.19536 -0.0722,-0.0398 -0.11976,-0.0641 -0.16848,-0.0887 0.16173,-0.96775 0.42923,-1.86472 0.79401,-2.68407 z m -0.96638,5.45445 c 0.16775,0.0823 0.32614,0.16082 0.52068,0.25362 1.21746,0.58074 2.94804,1.35219 5.02878,2.12933 4.14216,1.54707 10.15625,3.20008 15.81399,3.31586 -0.39132,0.86538 -0.89196,1.64276 -1.49364,2.32321 -5.2784,-0.20394 -10.43828,-1.66687 -14.33201,-3.11871 -2.02938,-0.7567 -3.71539,-1.50966 -4.89673,-2.07526 -0.0733,-0.0351 -0.13856,-0.0671 -0.20791,-0.10067 -0.24693,-0.87212 -0.39494,-1.78556 -0.43316,-2.72738 z m 2.0884,6.22338 c 0.60557,0.24933 1.25224,0.50534 1.94232,0.76265 3.72111,1.38748 8.28737,2.70024 13.31575,3.01864 -1.56163,0.83195 -3.44485,1.27887 -5.58859,1.27884 -4.0061,-5e-5 -7.54401,-2.00234 -9.66948,-5.06013 z" />
    <path
       id="path1172-7"
       style="fill:#3f7f40;fill-opacity:0.399093;stroke:none;stroke-width:0.467792;stroke-opacity:1"
       d="m 184.49924,75.692422 c -7.04025,3e-5 -13.90987,6.86965 -13.90991,13.90991 4e-5,7.04027 5.70731,12.747538 12.74757,12.747568 7.04038,1.3e-4 13.91018,-6.869528 13.91021,-13.909908 -3e-5,-7.04038 -5.70748,-12.7477 -12.74787,-12.74757 z m -1.16234,2.14097 c 5.68184,-7e-5 10.42331,4.02636 11.52667,9.38152 -4.94133,-0.32758 -9.69453,-1.6961 -13.34173,-3.05747 -2.02155,-0.75457 -3.7033,-1.50662 -4.89106,-2.07406 -0.59387,-0.28373 -1.0642,-0.52065 -1.39236,-0.69006 -0.0793,-0.0409 -0.1231,-0.0643 -0.18581,-0.0971 1.84136,-2.21219 4.69841,-3.46279 8.28429,-3.46284 z m -9.62916,5.63757 c 0.3308,0.17003 0.77371,0.39326 1.33681,0.66228 1.20884,0.57753 2.91574,1.34006 4.97021,2.10692 4.06185,1.51615 9.47891,3.04983 15.08869,3.18324 0.001,0.0596 0.002,0.11911 0.002,0.17893 1e-5,0.98401 -0.0949,1.91278 -0.27722,2.78115 -5.48045,-0.11326 -10.9573,-1.63588 -15.03223,-3.15784 -2.04824,-0.765 -3.7522,-1.52616 -4.94841,-2.09677 -0.5981,-0.2853 -1.06978,-0.52239 -1.39326,-0.68976 -0.16174,-0.0837 -0.28669,-0.1496 -0.37251,-0.19536 -0.0722,-0.0398 -0.11976,-0.0641 -0.16848,-0.0887 0.16172,-0.96775 0.42923,-1.86472 0.79401,-2.68406 z m -0.96638,5.45446 c 0.16775,0.0823 0.32614,0.16082 0.52068,0.25361 1.21746,0.58075 2.94804,1.3522 5.02878,2.12933 4.14216,1.54707 10.15625,3.20008 15.81399,3.31587 -0.39132,0.86538 -0.89196,1.64276 -1.49364,2.3232 -5.2784,-0.20393 -10.43828,-1.66687 -14.33201,-3.11871 -2.02938,-0.7567 -3.71539,-1.50966 -4.89673,-2.07525 -0.0733,-0.0351 -0.13856,-0.0671 -0.20791,-0.10068 -0.24693,-0.87211 -0.39494,-1.78556 -0.43316,-2.72737 z m 2.0884,6.22337 c 0.60557,0.24934 1.25224,0.50534 1.94232,0.76265 3.72111,1.38748 8.28737,2.70024 13.31575,3.01864 -1.56164,0.83196 -3.44485,1.278878 -5.58859,1.278848 -4.0061,-5e-5 -7.54401,-2.002348 -9.66948,-5.060138 z" />
    <path
       id="path1172-7-8"
       style="fill:#3f7f40;fill-opacity:0.399093;stroke:none;stroke-width:0.467792;stroke-opacity:1"
       d="m 28.574777,126.48919 c -7.04025,3e-5 -13.909871,6.86965 -13.909911,13.90991 4e-5,7.04027 5.707311,12.74754 12.747571,12.74757 7.04038,1.3e-4 13.91018,-6.86953 13.91021,-13.90991 -3e-5,-7.04038 -5.70748,-12.7477 -12.74787,-12.74757 z m -1.16234,2.14097 c 5.68184,-7e-5 10.42331,4.02636 11.52667,9.38152 -4.94133,-0.32758 -9.69453,-1.6961 -13.34173,-3.05747 -2.02155,-0.75457 -3.7033,-1.50662 -4.89106,-2.07406 -0.59387,-0.28373 -1.0642,-0.52065 -1.39236,-0.69006 -0.0793,-0.0409 -0.1231,-0.0643 -0.18581,-0.0971 1.84136,-2.21219 4.69841,-3.46279 8.28429,-3.46284 z m -9.62916,5.63757 c 0.3308,0.17003 0.77371,0.39326 1.33681,0.66228 1.20884,0.57753 2.91574,1.34006 4.97021,2.10692 4.06185,1.51615 9.47891,3.04983 15.08869,3.18324 10e-4,0.0596 0.002,0.11911 0.002,0.17893 10e-6,0.98401 -0.0949,1.91278 -0.27722,2.78115 -5.48045,-0.11326 -10.9573,-1.63588 -15.03223,-3.15784 -2.04824,-0.765 -3.7522,-1.52616 -4.94841,-2.09677 -0.5981,-0.2853 -1.06978,-0.52239 -1.39326,-0.68976 -0.16174,-0.0837 -0.28669,-0.1496 -0.37251,-0.19536 -0.0722,-0.0398 -0.11976,-0.0641 -0.16848,-0.0887 0.16172,-0.96775 0.42923,-1.86472 0.79401,-2.68406 z m -0.966381,5.45446 c 0.167751,0.0823 0.326141,0.16082 0.520681,0.25361 1.21746,0.58075 2.94804,1.3522 5.02878,2.12933 4.14216,1.54707 10.15625,3.20008 15.81399,3.31587 -0.39132,0.86538 -0.89196,1.64276 -1.49364,2.3232 -5.2784,-0.20393 -10.43828,-1.66687 -14.33201,-3.11871 -2.02938,-0.7567 -3.71539,-1.50966 -4.89673,-2.07525 -0.0733,-0.0351 -0.13856,-0.0671 -0.20791,-0.10068 -0.24693,-0.87211 -0.394941,-1.78556 -0.433161,-2.72737 z m 2.088401,6.22337 c 0.60557,0.24934 1.25224,0.50534 1.94232,0.76265 3.72111,1.38748 8.28737,2.70024 13.31575,3.01864 -1.56164,0.83196 -3.44485,1.27888 -5.58859,1.27885 -4.0061,-5e-5 -7.54401,-2.00235 -9.66948,-5.06014 z" />
    <path
       id="path1172-74"
       style="fill:#3f7f40;fill-opacity:0.399093;stroke:none;stroke-width:0.467792;stroke-opacity:1"
       d="m 161.84499,178.77734 c -7.04025,3e-5 -13.90987,6.86964 -13.90991,13.90991 4e-5,7.04027 5.70731,12.74753 12.74757,12.74757 7.04039,1.3e-4 13.91018,-6.86953 13.91021,-13.90992 -3e-5,-7.04038 -5.70748,-12.74769 -12.74787,-12.74756 z m -1.16234,2.14097 c 5.68184,-7e-5 10.42331,4.02636 11.52667,9.38152 -4.94133,-0.32759 -9.69453,-1.6961 -13.34173,-3.05747 -2.02155,-0.75458 -3.7033,-1.50662 -4.89105,-2.07407 -0.59388,-0.28372 -1.06421,-0.52065 -1.39237,-0.69005 -0.0793,-0.0409 -0.1231,-0.0643 -0.18581,-0.0971 1.84136,-2.21219 4.69841,-3.4628 8.28429,-3.46284 z m -9.62916,5.63757 c 0.3308,0.17002 0.77371,0.39326 1.33681,0.66228 1.20884,0.57753 2.91574,1.34006 4.97022,2.10692 4.06184,1.51614 9.4789,3.04983 15.08868,3.18323 0.001,0.0596 0.002,0.11912 0.002,0.17894 1e-5,0.98401 -0.0949,1.91278 -0.27721,2.78115 -5.48046,-0.11327 -10.95731,-1.63588 -15.03223,-3.15784 -2.04825,-0.76501 -3.75221,-1.52617 -4.94841,-2.09677 -0.59811,-0.2853 -1.06979,-0.52239 -1.39327,-0.68976 -0.16174,-0.0837 -0.28669,-0.1496 -0.37251,-0.19536 -0.0722,-0.0398 -0.11976,-0.0641 -0.16848,-0.0887 0.16173,-0.96775 0.42923,-1.86472 0.79401,-2.68407 z m -0.96638,5.45445 c 0.16775,0.0823 0.32614,0.16082 0.52068,0.25362 1.21746,0.58074 2.94804,1.35219 5.02878,2.12933 4.14216,1.54707 10.15625,3.20008 15.81399,3.31586 -0.39132,0.86538 -0.89196,1.64276 -1.49364,2.32321 -5.2784,-0.20394 -10.43828,-1.66687 -14.33201,-3.11871 -2.02938,-0.7567 -3.71539,-1.50966 -4.89673,-2.07526 -0.0733,-0.0351 -0.13856,-0.0671 -0.20791,-0.10067 -0.24693,-0.87212 -0.39494,-1.78556 -0.43316,-2.72738 z m 2.0884,6.22338 c 0.60557,0.24933 1.25224,0.50534 1.94232,0.76265 3.72111,1.38748 8.28737,2.70024 13.31575,3.01864 -1.56163,0.83195 -3.44485,1.27887 -5.58859,1.27884 -4.0061,-5e-5 -7.54401,-2.00234 -9.66948,-5.06013 z" />
    <path
       id="path1172-8"
       style="fill:#3f7f40;fill-opacity:0.399093;stroke:none;stroke-width:0.467792;stroke-opacity:1"
       d="m 170.80967,251.48968 c -7.04025,3e-5 -13.90987,6.86965 -13.90991,13.90991 4e-5,7.04027 5.70731,12.74754 12.74757,12.74757 7.04039,1.3e-4 13.91018,-6.86953 13.91021,-13.90991 -3e-5,-7.04039 -5.70748,-12.7477 -12.74787,-12.74757 z m -1.16234,2.14097 c 5.68184,-7e-5 10.42331,4.02636 11.52667,9.38152 -4.94133,-0.32758 -9.69453,-1.6961 -13.34173,-3.05747 -2.02155,-0.75457 -3.7033,-1.50662 -4.89105,-2.07406 -0.59388,-0.28373 -1.06421,-0.52066 -1.39237,-0.69006 -0.0793,-0.0409 -0.1231,-0.0643 -0.18581,-0.0971 1.84136,-2.21219 4.69841,-3.46279 8.28429,-3.46284 z m -9.62916,5.63757 c 0.3308,0.17002 0.77371,0.39326 1.33681,0.66228 1.20884,0.57753 2.91574,1.34006 4.97022,2.10692 4.06184,1.51615 9.4789,3.04983 15.08868,3.18324 0.001,0.0596 0.002,0.11911 0.002,0.17893 1e-5,0.98401 -0.0949,1.91278 -0.27721,2.78115 -5.48046,-0.11327 -10.95731,-1.63588 -15.03223,-3.15784 -2.04825,-0.765 -3.75221,-1.52616 -4.94841,-2.09677 -0.59811,-0.2853 -1.06979,-0.52239 -1.39327,-0.68976 -0.16174,-0.0837 -0.28669,-0.1496 -0.37251,-0.19536 -0.0722,-0.0398 -0.11976,-0.0641 -0.16848,-0.0887 0.16173,-0.96775 0.42923,-1.86472 0.79401,-2.68406 z m -0.96638,5.45446 c 0.16775,0.0823 0.32614,0.16082 0.52068,0.25361 1.21746,0.58075 2.94804,1.35219 5.02878,2.12933 4.14216,1.54707 10.15625,3.20008 15.81399,3.31587 -0.39132,0.86538 -0.89196,1.64276 -1.49364,2.3232 -5.2784,-0.20393 -10.43828,-1.66687 -14.33201,-3.11871 -2.02938,-0.7567 -3.71539,-1.50966 -4.89673,-2.07526 -0.0733,-0.0351 -0.13856,-0.0671 -0.20791,-0.10067 -0.24693,-0.87212 -0.39494,-1.78556 -0.43316,-2.72737 z m 2.0884,6.22337 c 0.60557,0.24934 1.25224,0.50534 1.94232,0.76265 3.72111,1.38748 8.28737,2.70024 13.31575,3.01864 -1.56163,0.83196 -3.44485,1.27888 -5.58859,1.27885 -4.0061,-6e-5 -7.54401,-2.00235 -9.66948,-5.06014 z" />
    <path
       id="path1172-88"
       style="fill:#3f7f40;fill-opacity:0.399093;stroke:none;stroke-width:0.467792;stroke-opacity:1"
       d="m 50.229222,158.49842 c -7.040254,3e-5 -13.909868,6.86965 -13.909908,13.90991 4e-5,7.04027 5.707308,12.74754 12.747568,12.74757 7.040379,1.3e-4 13.910179,-6.86953 13.910209,-13.90991 -3e-5,-7.04039 -5.70748,-12.7477 -12.747869,-12.74757 z m -1.16234,2.14097 c 5.68184,-7e-5 10.423309,4.02636 11.526669,9.38152 -4.94133,-0.32758 -9.694529,-1.6961 -13.341727,-3.05747 -2.021552,-0.75457 -3.703307,-1.50662 -4.891059,-2.07406 -0.593877,-0.28373 -1.064207,-0.52066 -1.392361,-0.69006 -0.07927,-0.0409 -0.123101,-0.0643 -0.18581,-0.0971 1.841355,-2.21219 4.698405,-3.46279 8.284288,-3.46284 z m -9.62916,5.63757 c 0.330795,0.17002 0.773708,0.39326 1.336808,0.66228 1.20884,0.57753 2.915736,1.34006 4.970215,2.10692 4.061847,1.51615 9.478896,3.04983 15.088686,3.18324 0.001,0.0596 0.002,0.11911 0.002,0.17893 1e-5,0.98401 -0.0949,1.91278 -0.27722,2.78115 -5.480449,-0.11327 -10.957299,-1.63588 -15.032226,-3.15784 -2.048241,-0.765 -3.752206,-1.52616 -4.94841,-2.09677 -0.598102,-0.2853 -1.069785,-0.52239 -1.393263,-0.68976 -0.161738,-0.0837 -0.286694,-0.1496 -0.372509,-0.19536 -0.07225,-0.0398 -0.119759,-0.0641 -0.168485,-0.0887 0.161727,-0.96775 0.429236,-1.86472 0.794016,-2.68406 z m -0.96638,5.45446 c 0.16775,0.0823 0.326136,0.16082 0.520681,0.25361 1.217459,0.58075 2.948038,1.35219 5.028773,2.12933 4.142166,1.54707 10.156256,3.20008 15.813995,3.31587 -0.39133,0.86538 -0.89196,1.64276 -1.49364,2.3232 -5.278409,-0.20393 -10.438289,-1.66687 -14.332009,-3.11871 -2.029385,-0.7567 -3.715394,-1.50966 -4.89673,-2.07526 -0.07326,-0.0351 -0.138558,-0.0671 -0.207915,-0.10067 -0.246929,-0.87212 -0.394933,-1.78556 -0.433155,-2.72737 z m 2.0884,6.22337 c 0.60557,0.24934 1.252236,0.50534 1.942321,0.76265 3.721105,1.38748 8.287369,2.70025 13.315748,3.01864 -1.561639,0.83196 -3.444859,1.27888 -5.588589,1.27885 -4.006106,-6e-5 -7.544009,-2.00235 -9.66948,-5.06014 z" />
    <path
       id="path1172-4"
       style="fill:#3f7f40;fill-opacity:0.399093;stroke:none;stroke-width:0.467792;stroke-opacity:1"
       d="m 189.96014,6.2114874 c -7.04026,3e-5 -13.90987,6.8696496 -13.90991,13.9099086 4e-5,7.04027 5.70731,12.74754 12.74757,12.74757 7.04038,1.3e-4 13.91017,-6.86953 13.91021,-13.90991 -4e-5,-7.040389 -5.70748,-12.7476986 -12.74787,-12.7475686 z m -1.16234,2.14097 c 5.68184,-7e-5 10.42331,4.0263596 11.52667,9.3815186 -4.94133,-0.32758 -9.69453,-1.6961 -13.34173,-3.057469 -2.02155,-0.75457 -3.70331,-1.50662 -4.89106,-2.07406 -0.59388,-0.28373 -1.06421,-0.52065 -1.39236,-0.69006 -0.0793,-0.0409 -0.1231,-0.0643 -0.18581,-0.0971 1.84135,-2.2121896 4.6984,-3.4627896 8.28429,-3.4628396 z m -9.62916,5.6375696 c 0.33079,0.17002 0.77371,0.39326 1.33681,0.66228 1.20884,0.577529 2.91573,1.340059 4.97021,2.106919 4.06184,1.51615 9.4789,3.04983 15.08868,3.18324 0.001,0.0596 0.002,0.11911 0.002,0.17893 2e-5,0.98401 -0.0949,1.91278 -0.27721,2.78115 -5.48046,-0.11327 -10.9573,-1.63588 -15.03223,-3.15784 -2.04824,-0.765 -3.75221,-1.52616 -4.94841,-2.09677 -0.5981,-0.2853 -1.06978,-0.52239 -1.39326,-0.68976 -0.16174,-0.0837 -0.2867,-0.1496 -0.37251,-0.19536 -0.0722,-0.0398 -0.11976,-0.0641 -0.16849,-0.0887 0.16173,-0.96775 0.42924,-1.864719 0.79402,-2.684059 z m -0.96638,5.454459 c 0.16775,0.0823 0.32613,0.16082 0.52068,0.25361 1.21746,0.58075 2.94804,1.35219 5.02877,2.12933 4.14216,1.54707 10.15625,3.20008 15.81399,3.31587 -0.39132,0.86538 -0.89196,1.64276 -1.49363,2.3232 -5.27841,-0.20393 -10.43829,-1.66687 -14.33201,-3.11871 -2.02939,-0.7567 -3.7154,-1.50966 -4.89673,-2.07526 -0.0733,-0.0351 -0.13856,-0.0671 -0.20792,-0.10067 -0.24693,-0.87211 -0.39493,-1.78556 -0.43315,-2.72737 z m 2.0884,6.22337 c 0.60557,0.24934 1.25223,0.50534 1.94232,0.76265 3.7211,1.38748 8.28737,2.70024 13.31574,3.01864 -1.56163,0.83196 -3.44485,1.27888 -5.58858,1.27885 -4.00611,-5e-5 -7.54401,-2.00235 -9.66948,-5.06014 z" />
  </g>
</svg>
