<?xml version="1.0" encoding="UTF-8" standalone="no"?>
<!-- Created with Inkscape (http://www.inkscape.org/) -->

<svg
   width="164.82794mm"
   height="58.573456mm"
   viewBox="0 0 164.82794 58.573456"
   version="1.1"
   id="svg5"
   inkscape:version="1.2.2 (732a01da63, 2022-12-09)"
   sodipodi:docname="acc.svg"
   xmlns:inkscape="http://www.inkscape.org/namespaces/inkscape"
   xmlns:sodipodi="http://sodipodi.sourceforge.net/DTD/sodipodi-0.dtd"
   xmlns="http://www.w3.org/2000/svg"
   xmlns:svg="http://www.w3.org/2000/svg">
  <sodipodi:namedview
     id="namedview7"
     pagecolor="#505050"
     bordercolor="#eeeeee"
     borderopacity="1"
     inkscape:showpageshadow="0"
     inkscape:pageopacity="0"
     inkscape:pagecheckerboard="0"
     inkscape:deskcolor="#505050"
     inkscape:document-units="mm"
     showgrid="false"
     inkscape:zoom="0.70710678"
     inkscape:cx="188.79751"
     inkscape:cy="62.225396"
     inkscape:window-width="1920"
     inkscape:window-height="1057"
     inkscape:window-x="-8"
     inkscape:window-y="-8"
     inkscape:window-maximized="1"
     inkscape:current-layer="layer1" />
  <defs
     id="defs2" />
  <g
     inkscape:label="Layer 1"
     inkscape:groupmode="layer"
     id="layer1"
     transform="translate(-33.42997,-126.4481)">
    <text
       xml:space="preserve"
       style="font-style:normal;font-variant:normal;font-weight:normal;font-stretch:normal;font-size:21.0599px;font-family:'Atkinson Hyperlegible Next';-inkscape-font-specification:'Atkinson Hyperlegible Next, @wght=500';font-variant-ligatures:normal;font-variant-caps:normal;font-variant-numeric:normal;font-variant-east-asian:normal;font-variation-settings:'wght' 500;fill:#3f7f40;fill-opacity:1;stroke:none;stroke-width:0.456824;stroke-opacity:1"
       x="89.911964"
       y="142.41939"
       id="text236"><tspan
         sodipodi:role="line"
         id="tspan234"
         style="font-style:normal;font-variant:normal;font-weight:normal;font-stretch:normal;font-size:21.0599px;font-family:'Atkinson Hyperlegible Next';-inkscape-font-specification:'Atkinson Hyperlegible Next, @wght=500';font-variant-ligatures:normal;font-variant-caps:normal;font-variant-numeric:normal;font-variant-east-asian:normal;font-variation-settings:'wght' 500;fill:#3f7f40;fill-opacity:1;stroke:none;stroke-width:0.456825;stroke-opacity:1"
         x="89.911964"
         y="142.41939">Anywhere</tspan></text>
    <text
       xml:space="preserve"
       style="font-style:normal;font-variant:normal;font-weight:normal;font-stretch:normal;font-size:20.6573px;font-family:'Atkinson Hyperlegible Next';-inkscape-font-specification:'Atkinson Hyperlegible Next, @wght=500';font-variant-ligatures:normal;font-variant-caps:normal;font-variant-numeric:normal;font-variant-east-asian:normal;font-variation-settings:'wght' 500;fill:#3f7f40;fill-opacity:1;stroke:none;stroke-width:0.44809;stroke-opacity:1"
       x="83.321945"
       y="168.58694"
       id="text236-6"><tspan
         sodipodi:role="line"
         id="tspan234-0"
         style="font-style:normal;font-variant:normal;font-weight:normal;font-stretch:normal;font-size:20.6573px;font-family:'Atkinson Hyperlegible Next';-inkscape-font-specification:'Atkinson Hyperlegible Next, @wght=500';font-variant-ligatures:normal;font-variant-caps:normal;font-variant-numeric:normal;font-variant-east-asian:normal;font-variation-settings:'wght' 500;fill:#3f7f40;fill-opacity:1;stroke:none;stroke-width:0.448091;stroke-opacity:1"
         x="83.321945"
         y="168.58694">Connection</tspan></text>
    <text
       xml:space="preserve"
       style="font-style:italic;font-variant:normal;font-weight:normal;font-stretch:normal;font-size:12.9513px;font-family:'Atkinson Hyperlegible Next';-inkscape-font-specification:'Atkinson Hyperlegible Next, Italic';font-variant-ligatures:normal;font-variant-caps:normal;font-variant-numeric:normal;font-variant-east-asian:normal;fill:#3f7f40;fill-opacity:1;stroke:none;stroke-width:0.280935;stroke-opacity:1"
       x="131.60063"
       y="182.92345"
       id="text236-6-0"><tspan
         sodipodi:role="line"
         id="tspan234-0-3"
         style="font-style:italic;font-variant:normal;font-weight:normal;font-stretch:normal;font-size:12.9513px;font-family:'Atkinson Hyperlegible Next';-inkscape-font-specification:'Atkinson Hyperlegible Next, Italic';font-variant-ligatures:normal;font-variant-caps:normal;font-variant-numeric:normal;font-variant-east-asian:normal;fill:#3f7f40;fill-opacity:1;stroke:none;stroke-width:0.280936;stroke-opacity:1"
         x="131.60063"
         y="182.92345">Corporation</tspan></text>
    <path
       id="path1172"
       style="fill:#3f7f40;fill-opacity:1;stroke:none;stroke-width:0.809229;stroke-opacity:1"
       d="m 57.492615,126.4481 c -12.178891,6e-5 -24.062579,11.88375 -24.062645,24.06264 6.6e-5,12.17889 9.872993,22.05182 22.051884,22.05188 12.179093,2.2e-4 24.063095,-11.88355 24.063161,-24.06264 -6.6e-5,-12.17909 -9.873307,-22.0521 -22.0524,-22.05188 z m -2.010761,3.70368 c 11.243998,-1.3e-4 20.359093,9.11496 20.358964,20.35896 1.29e-4,11.244 -7.104205,18.34833 -18.348203,18.3482 -11.243796,-1.5e-4 -20.358577,-9.11516 -20.358448,-20.35896 -1.29e-4,-11.2438 7.10389,-18.34804 18.347687,-18.3482 z"
       sodipodi:nodetypes="cccccscscs" />
    <path
       style="color:#000000;fill:#3f7f40;-inkscape-stroke:none"
       d="m 40.46875,135.78866 -2.673312,3.57761 c -0.08634,-0.0365 -0.01907,-0.008 0.02344,0.0137 0.04251,0.0222 2.117109,-1.9555 2.19675,-1.9135 0.159283,0.0839 -1.625435,2.215 -1.335422,2.36471 0.580027,0.29944 1.411448,0.71922 2.457031,1.21875 2.091168,0.99906 5.043635,2.31794 8.597657,3.64453 7.108043,2.65318 16.615041,5.33939 26.439453,5.51563 19.266832,0.34562 26.310573,3.57837 39.496083,3.82031 13.24017,0.24295 32.28168,-3.7698 45.05078,-3.58203 12.87489,0.18933 26.55664,2.25586 26.55664,2.25586 l 2.26511,-3.69284 c 0,0 -13.74639,-2.08365 -26.78516,-2.27539 -13.14453,-0.19329 -32.18343,3.81998 -45.04492,3.58398 -12.91614,-0.237 -20.049422,-3.47143 -39.498033,-3.82031 -9.53331,-0.17101 -18.878932,-2.79755 -25.873047,-5.4082 -3.497058,-1.30533 -6.406258,-2.60627 -8.460938,-3.58789 -1.02734,-0.49082 -1.840531,-0.90031 -2.408203,-1.19336 -0.283836,-0.14653 -0.50762,-0.26419 -0.666015,-0.34766 -0.0792,-0.0417 -0.142229,-0.074 -0.191407,-0.0996 -0.04918,-0.0257 -0.03768,-0.0283 -0.146484,-0.0742 z m -3.369783,8.58223 -2.356264,3.73757 c -0.09023,-0.0403 -0.03996,-0.0203 -0.03125,-0.0156 0.0087,0.005 0.02484,0.0146 0.04492,0.0254 0.04016,0.0215 0.09919,0.0529 0.175781,0.0937 0.153176,0.0817 0.375169,0.1992 0.66211,0.34766 0.573881,0.29692 1.405946,0.71644 2.458984,1.21875 2.106076,1.00462 5.099784,2.33923 8.699219,3.68359 7.19887,2.68873 17.666851,5.56335 27.493856,5.73963 l 1.265239,-3.87578 c -9.53072,-0.17097 -19.067678,-2.8201 -26.154142,-5.46685 -3.543232,-1.32337 -6.491247,-2.63987 -8.560547,-3.62695 -1.03465,-0.49354 -1.850572,-0.90383 -2.410156,-1.19336 -0.279792,-0.14476 -0.49608,-0.25873 -0.644532,-0.33789 -0.268215,-0.14782 -0.35012,-0.18242 -0.643218,-0.32987 z m -2.024748,8.24199 c -0.527964,3.13325 -0.814966,3.52538 0.441922,5.16363 2.081983,0.99681 5.041868,2.31823 8.609375,3.64844 7.135013,2.66042 16.065938,5.16242 25.891146,5.33867 l 2.670838,-3.51198 c -9.532512,-0.171 -18.933845,-2.81169 -25.955078,-5.42968 -3.510617,-1.309 -6.427122,-2.61143 -8.470703,-3.58985 -1.021791,-0.48921 -1.826305,-0.89769 -2.376953,-1.18555 -0.275324,-0.14392 -0.486919,-0.25752 -0.63086,-0.33593 -0.07197,-0.0392 -0.127628,-0.0695 -0.164062,-0.0898 -0.03643,-0.0204 -0.140386,-0.0892 -0.01563,-0.008 z"
       id="path2221"
       sodipodi:nodetypes="ccccssssssccsssssscccccccccsssccsssccccsccssssccc" />
  </g>
</svg>
